# Blender v2.79 (sub 0) OBJ File: ''
# www.blender.org
mtllib lvl1_bolsters.mtl
o Cube.004_Cube.038
v 1.400000 -2.045318 4.094062
v 1.400000 -0.665696 4.094062
v 1.400000 -2.045318 2.894063
v 1.400000 -0.665696 2.894063
v 2.600000 -2.045318 4.094062
v 2.600000 -0.665696 4.094062
v 2.600000 -2.045318 2.894063
v 2.600000 -0.665696 2.894063
vn -1.0000 0.0000 0.0000
vn 0.0000 0.0000 -1.0000
vn 1.0000 0.0000 0.0000
vn 0.0000 0.0000 1.0000
vn 0.0000 -1.0000 0.0000
vn 0.0000 1.0000 0.0000
usemtl Material.010
s off
f 1//1 2//1 4//1 3//1
f 3//2 4//2 8//2 7//2
f 7//3 8//3 6//3 5//3
f 5//4 6//4 2//4 1//4
f 3//5 7//5 5//5 1//5
f 8//6 4//6 2//6 6//6
o Cube.005_Cube.039
v -0.700000 -2.045318 6.753033
v -0.700000 -0.665696 6.753033
v -0.700000 -2.045318 5.353033
v -0.700000 -0.665696 5.353033
v 0.700000 -2.045318 6.753033
v 0.700000 -0.665696 6.753033
v 0.700000 -2.045318 5.353033
v 0.700000 -0.665696 5.353033
vn -1.0000 0.0000 0.0000
vn 0.0000 0.0000 -1.0000
vn 1.0000 0.0000 0.0000
vn 0.0000 0.0000 1.0000
vn 0.0000 -1.0000 0.0000
vn 0.0000 1.0000 0.0000
usemtl Material.011
s off
f 9//7 10//7 12//7 11//7
f 11//8 12//8 16//8 15//8
f 15//9 16//9 14//9 13//9
f 13//10 14//10 10//10 9//10
f 11//11 15//11 13//11 9//11
f 16//12 12//12 10//12 14//12
o Cube.006_Cube.040
v -2.600000 -2.045318 4.094062
v -2.600000 -0.665696 4.094062
v -2.600000 -2.045318 2.894063
v -2.600000 -0.665696 2.894063
v -1.400000 -2.045318 4.094062
v -1.400000 -0.665696 4.094062
v -1.400000 -2.045318 2.894063
v -1.400000 -0.665696 2.894063
vn -1.0000 0.0000 0.0000
vn 0.0000 0.0000 -1.0000
vn 1.0000 0.0000 0.0000
vn 0.0000 0.0000 1.0000
vn 0.0000 -1.0000 0.0000
vn 0.0000 1.0000 0.0000
usemtl Material.006
s off
f 17//13 18//13 20//13 19//13
f 19//14 20//14 24//14 23//14
f 23//15 24//15 22//15 21//15
f 21//16 22//16 18//16 17//16
f 19//17 23//17 21//17 17//17
f 24//18 20//18 18//18 22//18
o Cube.009_Cube.043
v 1.400000 0.712855 4.094062
v 1.400000 2.092477 4.094062
v 1.400000 0.712855 2.894063
v 1.400000 2.092477 2.894063
v 2.600000 0.712855 4.094062
v 2.600000 2.092477 4.094062
v 2.600000 0.712855 2.894063
v 2.600000 2.092477 2.894063
vt 0.000000 0.000000
vt 1.000000 0.000000
vt 1.000000 1.000000
vt 0.000000 1.000000
vt 0.000000 0.000000
vt 1.000000 0.000000
vt 1.000000 1.000000
vt 0.000000 1.000000
vt 0.000000 0.000000
vt 1.000000 0.000000
vt 1.000000 1.000000
vt 0.000000 1.000000
vt 0.000000 0.000000
vt 1.000000 0.000000
vt 1.000000 1.000000
vt 0.000000 1.000000
vt 1.000000 0.000000
vt 1.000000 1.000000
vt 0.000000 0.000000
vt 0.000000 1.000000
vn -1.0000 0.0000 0.0000
vn 0.0000 0.0000 -1.0000
vn 1.0000 0.0000 0.0000
vn 0.0000 0.0000 1.0000
vn 0.0000 -1.0000 0.0000
vn 0.0000 1.0000 0.0000
usemtl Material.009
s off
f 25/1/19 26/2/19 28/3/19 27/4/19
f 27/5/20 28/6/20 32/7/20 31/8/20
f 31/9/21 32/10/21 30/11/21 29/12/21
f 29/13/22 30/14/22 26/15/22 25/16/22
f 27/5/23 31/17/23 29/18/23 25/16/23
f 32/19/24 28/6/24 26/15/24 30/20/24
o Cube.008_Cube.042
v -0.700000 0.712855 6.753033
v -0.700000 2.092477 6.753033
v -0.700000 0.712855 5.353033
v -0.700000 2.092477 5.353033
v 0.700000 0.712855 6.753033
v 0.700000 2.092477 6.753033
v 0.700000 0.712855 5.353033
v 0.700000 2.092477 5.353033
vn -1.0000 0.0000 0.0000
vn 0.0000 0.0000 -1.0000
vn 1.0000 0.0000 0.0000
vn 0.0000 0.0000 1.0000
vn 0.0000 -1.0000 0.0000
vn 0.0000 1.0000 0.0000
usemtl Material.008
s off
f 33//25 34//25 36//25 35//25
f 35//26 36//26 40//26 39//26
f 39//27 40//27 38//27 37//27
f 37//28 38//28 34//28 33//28
f 35//29 39//29 37//29 33//29
f 40//30 36//30 34//30 38//30
o Cube.007_Cube.041
v -2.600000 0.712855 4.129593
v -2.600000 2.092477 4.129593
v -2.600000 0.712855 2.929593
v -2.600000 2.092477 2.929593
v -1.400000 0.712855 4.129593
v -1.400000 2.092477 4.129593
v -1.400000 0.712855 2.929593
v -1.400000 2.092477 2.929593
vn -1.0000 0.0000 0.0000
vn 0.0000 0.0000 -1.0000
vn 1.0000 0.0000 0.0000
vn 0.0000 0.0000 1.0000
vn 0.0000 -1.0000 0.0000
vn 0.0000 1.0000 0.0000
usemtl Material.007
s off
f 41//31 42//31 44//31 43//31
f 43//32 44//32 48//32 47//32
f 47//33 48//33 46//33 45//33
f 45//34 46//34 42//34 41//34
f 43//35 47//35 45//35 41//35
f 48//36 44//36 42//36 46//36
